<?xml version="1.0" encoding="UTF-8"?>
<svg width="17px" height="17px" viewBox="0 0 17 17" version="1.1" xmlns="http://www.w3.org/2000/svg" xmlns:xlink="http://www.w3.org/1999/xlink">
    <title>垃圾桶备份</title>
    <g id="任务中心" stroke="none" stroke-width="1" fill="none" fill-rule="evenodd">
        <g id="考核模型-考核指标配置-第二步" transform="translate(-744.000000, -625.000000)" fill-rule="nonzero">
            <g id="编组-5备份-7" transform="translate(733.000000, 614.000000)">
                <g id="垃圾桶" transform="translate(11.500000, 11.500000)">
                    <rect id="矩形" fill="#000000" opacity="0" x="0" y="0" width="16" height="16"></rect>
                    <path d="M11.9,5.825 L11.45,5.825 L11.45,12.725 C11.45,12.95 11.225,13.175 11,13.175 L5,13.175 C4.775,13.175 4.55,12.95 4.55,12.725 L4.55,5.825 L4.1,5.825 L3.65,5.825 L3.65,12.725 C3.725,13.4 4.25,14 5,14 L11,14 C11.75,14 12.35,13.4 12.35,12.65 L12.35,5.825 L11.9,5.825 Z M7.1,5.825 L6.65,5.825 L6.2,5.825 L6.2,11.45 L6.65,11.45 L7.1,11.45 L7.1,5.825 Z M9.725,10.925 L9.725,5.825 L9.275,5.825 L8.825,5.825 L8.825,11.45 L9.275,11.45 L9.725,11.45 L9.725,10.925 Z M13.55,4.1 L11.45,4.1 L11.45,3.275 C11.45,2.6 10.85,2 10.175,2 L5.825,2 C5.075,2 4.55,2.525 4.55,3.275 L4.55,4.175 L2,4.175 L2,4.55 L2,4.925 L14,4.925 L14,4.55 C14,4.25 14,4.1 14,4.1 C14,4.1 13.85,4.1 13.55,4.1 Z M10.55,4.1 L5.375,4.1 L5.375,3.275 C5.375,3.05 5.6,2.825 5.825,2.825 L10.175,2.825 C10.4,2.825 10.55,2.975 10.55,3.275 L10.55,4.1 L10.55,4.1 Z" id="形状" fill="#4D81E1"></path>
                </g>
            </g>
        </g>
    </g>
</svg>